<svg width="20" height="20" viewBox="0 0 20 20" fill="none" xmlns="http://www.w3.org/2000/svg">
<path fill-rule="evenodd" clip-rule="evenodd" d="M4.35332 2.76172C4.60528 2.76172 4.84691 2.86181 5.02507 3.03997C5.20323 3.21813 5.30332 3.45976 5.30332 3.71172V5.70767C6.09376 4.90138 7.07643 4.30956 8.15878 3.98796C9.24112 3.66636 10.3875 3.62557 11.49 3.86942C12.5925 4.11328 13.6147 4.63375 14.4605 5.38182C15.3062 6.12989 15.9476 7.08093 16.3243 8.14537C16.37 8.26389 16.3914 8.39037 16.3874 8.51733C16.3834 8.64429 16.3539 8.76915 16.3008 8.88453C16.2476 8.9999 16.1719 9.10345 16.078 9.18905C15.9842 9.27464 15.8741 9.34055 15.7544 9.38286C15.6346 9.42518 15.5075 9.44305 15.3807 9.43541C15.254 9.42777 15.13 9.39478 15.0162 9.3384C14.9023 9.28201 14.801 9.20337 14.7181 9.10712C14.6352 9.01088 14.5724 8.89899 14.5335 8.77807C14.2467 7.96754 13.7455 7.25001 13.083 6.70192C12.4206 6.15383 11.6219 5.79572 10.7721 5.66576C9.92217 5.53579 9.05295 5.63884 8.25702 5.96392C7.46109 6.289 6.76826 6.82394 6.25237 7.51172H9.10332C9.35528 7.51172 9.59691 7.61181 9.77507 7.78997C9.95323 7.96813 10.0533 8.20976 10.0533 8.46172C10.0533 8.71367 9.95323 8.95531 9.77507 9.13347C9.59691 9.31163 9.35528 9.41172 9.10332 9.41172H4.35332C4.10136 9.41172 3.85973 9.31163 3.68157 9.13347C3.50341 8.95531 3.40332 8.71367 3.40332 8.46172V3.71172C3.40332 3.45976 3.50341 3.21813 3.68157 3.03997C3.85973 2.86181 4.10136 2.76172 4.35332 2.76172ZM4.36092 11.3659C4.47856 11.3243 4.60324 11.3063 4.72783 11.313C4.85242 11.3196 4.97449 11.3507 5.08705 11.4045C5.19962 11.4584 5.30048 11.5338 5.38388 11.6266C5.46728 11.7194 5.53158 11.8277 5.57312 11.9454C5.85989 12.7559 6.36119 13.4734 7.0236 14.0215C7.68601 14.5696 8.4847 14.9277 9.33459 15.0577C10.1845 15.1876 11.0537 15.0846 11.8496 14.7595C12.6456 14.4344 13.3384 13.8995 13.8543 13.2117H11.0033C10.7514 13.2117 10.5097 13.1116 10.3316 12.9335C10.1534 12.7553 10.0533 12.5137 10.0533 12.2617C10.0533 12.0098 10.1534 11.7681 10.3316 11.59C10.5097 11.4118 10.7514 11.3117 11.0033 11.3117H15.7533C16.0053 11.3117 16.2469 11.4118 16.4251 11.59C16.6032 11.7681 16.7033 12.0098 16.7033 12.2617V17.0117C16.7033 17.2637 16.6032 17.5053 16.4251 17.6835C16.2469 17.8616 16.0053 17.9617 15.7533 17.9617C15.5014 17.9617 15.2597 17.8616 15.0816 17.6835C14.9034 17.5053 14.8033 17.2637 14.8033 17.0117V15.0158C14.0129 15.8221 13.0302 16.4139 11.9479 16.7355C10.8655 17.0571 9.71912 17.0979 8.61665 16.854C7.51418 16.6102 6.49193 16.0897 5.64618 15.3416C4.80044 14.5936 4.15903 13.6425 3.78237 12.5781C3.74082 12.4604 3.72285 12.3357 3.72948 12.2112C3.73612 12.0866 3.76723 11.9645 3.82104 11.8519C3.87485 11.7394 3.95031 11.6385 4.04311 11.5551C4.1359 11.4717 4.24327 11.4074 4.36092 11.3659Z" fill="white"/>
</svg>
