<svg width="20" height="21" viewBox="0 0 20 21" fill="none" xmlns="http://www.w3.org/2000/svg">
<path d="M10.4575 9.54184C10.4575 13.0588 9.44852 16.3408 7.70452 19.1128M4.26452 17.0728L4.31852 16.9828C5.72104 14.7548 6.46275 12.1746 6.45752 9.54184C6.45752 8.48097 6.87895 7.46355 7.62909 6.71341C8.37924 5.96326 9.39665 5.54184 10.4575 5.54184C11.5184 5.54184 12.5358 5.96326 13.2859 6.71341C14.0361 7.46355 14.4575 8.48097 14.4575 9.54184C14.4575 10.5588 14.3875 11.5608 14.2545 12.5418M12.1365 19.3858C12.7537 18.1543 13.2533 16.8673 13.6285 15.5418M17.4675 16.6738C18.1125 14.4078 18.4575 12.0148 18.4575 9.54184C18.4578 8.13739 18.0884 6.75761 17.3864 5.54121C16.6844 4.3248 15.6745 3.31464 14.4583 2.61228C13.2421 1.90993 11.8624 1.54012 10.458 1.54004C9.05352 1.53996 7.67381 1.90961 6.45752 2.61184M1.45752 13.9058C2.09752 12.5868 2.45752 11.1058 2.45752 9.54184C2.45752 8.08484 2.84752 6.71884 3.52752 5.54184" stroke="black" stroke-width="2" stroke-linecap="round" stroke-linejoin="round"/>
</svg>
